<?xml version="1.0" encoding="utf-8"?>
<!-- Generator: Adobe Illustrator 15.0.2, SVG Export Plug-In . SVG Version: 6.00 Build 0)  -->
<!DOCTYPE svg PUBLIC "-//W3C//DTD SVG 1.1//EN" "http://www.w3.org/Graphics/SVG/1.1/DTD/svg11.dtd">
<svg version="1.1" id="Layer_1" xmlns="http://www.w3.org/2000/svg" xmlns:xlink="http://www.w3.org/1999/xlink" x="0px" y="0px"
	 width="81px" height="81px" viewBox="0 0 81 81" enable-background="new 0 0 81 81" xml:space="preserve">
<path fill="#FFFFFF" d="M69.334,22.389c-2.1,0.909-4.348,1.531-6.699,1.816c-0.018-0.043-0.035-0.084-0.055-0.126
	c2.492-1.458,4.418-3.78,5.365-6.555c-0.725,0.442-4.203,2.405-7.6,3.04c-2.218-2.431-5.404-3.956-8.955-3.956
	c-7.496,0-12.115,6.15-12.115,12.115c0,0.465,0.22,2.387,0.259,2.495C29.464,31,20.533,26.152,14.782,18.72
	c-4.121,7.499,0.195,14,3.153,16.321c-1.718-0.03-3.353-0.4-4.841-1.049c0.314,5.769,4.486,10.508,9.981,11.688
	c-2.201,0.618-4.842,0.146-5.86-0.119c1.624,4.825,6.071,8.354,11.38,8.612c-8.125,5.97-16.887,5.36-17.026,5.358
	c5.148,3.085,11.174,4.902,17.613,4.859c23.599-0.152,35.716-21.097,34.274-36.125C66.039,27.063,68.129,24.974,69.334,22.389
	 M80.9,69.064C80.9,75.657,75.559,81,68.967,81h-57.03C5.344,81,0,75.657,0,69.064V11.937C0,5.344,5.344,0,11.937,0h57.03
	c6.592,0,11.936,5.344,11.936,11.937v57.127H80.9z"/>
</svg>
